<mxfile host="app.diagrams.net" modified="2022-12-23T22:13:31.801Z" agent="5.0 (Windows NT 10.0; Win64; x64) AppleWebKit/537.36 (KHTML, like Gecko) Chrome/108.0.0.0 Safari/537.36" etag="_StRdSwCjSpqiQoVTTcr" version="20.7.4" type="github">
  <diagram name="Page-1" id="03018318-947c-dd8e-b7a3-06fadd420f32">
    <mxGraphModel dx="1600" dy="691" grid="1" gridSize="10" guides="1" tooltips="1" connect="1" arrows="1" fold="1" page="1" pageScale="1" pageWidth="1100" pageHeight="850" background="none" math="0" shadow="0">
      <root>
        <mxCell id="0" />
        <mxCell id="1" parent="0" />
        <UserObject label="" tags="Background" id="1vmF5FxM2HMWmrMtrK7E-1">
          <mxCell style="vsdxID=757;fillColor=#ffffff;gradientColor=none;shape=stencil(nZBLDsIwEENPM/uQSFyglAtwgogMzYiQVGn4nr5pDVLVBYvuxvazRjKZZvC2Z9JqKDld+SmueDIH0lqi5yylXmRaMs0lZe5yukcH3dtKajU77NDZTbRWNp9P8mF4e3go3dJjevZCpBC9v2UFfQQaJC7QX7gJ/oNuBFfv6zHPgaEkBKy5zNfzVQvTm3YE);strokeColor=#a5a5a5;shadow=1;points=[[0.99,0,0],[0.01,0,0]];labelBackgroundColor=none;rounded=1;html=1;whiteSpace=wrap;" vertex="1" parent="1">
            <mxGeometry x="161" y="75" width="789" height="570" as="geometry" />
          </mxCell>
        </UserObject>
        <mxCell id="1vmF5FxM2HMWmrMtrK7E-2" value="&lt;div style=&quot;&quot;&gt;&lt;font style=&quot;font-family: Calibri; color: rgb(0, 0, 0); direction: ltr; letter-spacing: 0px; line-height: 120%; opacity: 1;&quot;&gt;&lt;font style=&quot;font-size: 18px;&quot;&gt;Программа для гостиницы&lt;/font&gt;&lt;br&gt;&lt;/font&gt;&lt;/div&gt;" style="verticalAlign=top;align=left;vsdxID=758;fillColor=none;gradientColor=none;shape=stencil(nZBLDsIwEENPM/uQSFyglAtwgogMzYiQVGn4nr5pDVLVBYvuxvazRjKZZvC2Z9JqKDld+SmueDIH0lqi5yylXmRaMs0lZe5yukcH3dtKajU77NDZTbRWNp9P8mF4e3go3dJjevZCpBC9v2UFfQQaJC7QX7gJ/oNuBFfv6zHPgaEkhGWyHq5aGN20Iw==);strokeColor=none;spacingTop=3;spacingBottom=3;spacingLeft=3;spacingRight=3;points=[[0.98,0,0],[0.02,0,0]];labelBackgroundColor=none;rounded=1;html=1;whiteSpace=wrap;" vertex="1" parent="1vmF5FxM2HMWmrMtrK7E-1">
          <mxGeometry x="9" y="31.5" width="778" height="37" as="geometry" />
        </mxCell>
        <mxCell id="677b7b8949515195-3" value="Search" style="strokeWidth=1;shadow=0;dashed=0;align=center;html=1;shape=mxgraph.mockup.forms.searchBox;strokeColor=#999999;mainText=;strokeColor2=#008cff;fontColor=#666666;fontSize=17;align=left;spacingLeft=3;rounded=0;labelBackgroundColor=none;comic=1;" parent="1vmF5FxM2HMWmrMtrK7E-1" vertex="1">
          <mxGeometry x="549" y="35" width="220" height="30" as="geometry" />
        </mxCell>
        <UserObject label="" tags="Мультимедиа" id="1vmF5FxM2HMWmrMtrK7E-3">
          <mxCell style="vsdxID=759;fillColor=none;gradientColor=none;strokeColor=none;spacingTop=-3;spacingBottom=-3;spacingLeft=-3;spacingRight=-3;points=[];labelBackgroundColor=none;rounded=0;html=1;whiteSpace=wrap;" vertex="1" parent="1vmF5FxM2HMWmrMtrK7E-1">
            <mxGeometry x="9" y="83" width="761" height="479" as="geometry" />
          </mxCell>
        </UserObject>
        <mxCell id="1vmF5FxM2HMWmrMtrK7E-4" style="vsdxID=760;fillColor=none;gradientColor=none;strokeColor=none;spacingTop=-3;spacingBottom=-3;spacingLeft=-3;spacingRight=-3;points=[];labelBackgroundColor=none;rounded=0;html=1;whiteSpace=wrap;" vertex="1" parent="1vmF5FxM2HMWmrMtrK7E-3">
          <mxGeometry width="761" height="479" as="geometry" />
        </mxCell>
        <mxCell id="1vmF5FxM2HMWmrMtrK7E-5" style="vsdxID=761;fillColor=#f2f2f2;gradientColor=none;shape=stencil(nZBLDoAgDERP0z3SIyjew0SURgSD+Lu9kMZoXLhwN9O+tukAlrNpJg1SzDH4QW/URgNYgZTkjA4UkwJUgGXng+6DX1zLfmoymdXo17xh5zmRJ6Q42BWCfc2oJfdAr+Yv+AP9Cb7OJ3H/2JG1HNGz/84klThPVCc=);strokeColor=#f2f2f2;spacingTop=-3;spacingBottom=-3;spacingLeft=-3;spacingRight=-3;points=[];labelBackgroundColor=none;rounded=0;html=1;whiteSpace=wrap;" vertex="1" parent="1vmF5FxM2HMWmrMtrK7E-4">
          <mxGeometry width="761" height="479" as="geometry" />
        </mxCell>
        <UserObject label="" tags="Обычные_значки" id="1vmF5FxM2HMWmrMtrK7E-6">
          <mxCell style="vsdxID=782;fillColor=none;gradientColor=none;strokeColor=none;spacingTop=-3;spacingBottom=-3;spacingLeft=-3;spacingRight=-3;points=[];labelBackgroundColor=none;rounded=0;html=1;whiteSpace=wrap;" vertex="1" parent="1vmF5FxM2HMWmrMtrK7E-4">
            <mxGeometry x="680" y="12" width="16" height="16" as="geometry" />
          </mxCell>
        </UserObject>
        <mxCell id="1vmF5FxM2HMWmrMtrK7E-7" style="vsdxID=783;fillColor=#606771;gradientColor=none;shape=stencil(lVTbcsIgEP0aXpmFbRN9tvofjsaGaZo4GCv8fZMSymWHjL7B5iznkp1luLu1x2vDJNxGPXw1D3UeW4YfTErVt41W43RiuGe4uwy6+dTDvT+7+/U4I+fT9/Azv2Bc3zvMLRKsu24lF+KvcnDo0107uHAAWfHN29Ii8h4w0pVqvtkuIF9BLqoFhASEiZgCdYSnYjxzrI+IMZiZzpWUmIN4S8R45igGS8V46hj1lOu4gcoxNF5L9ZR8k7/dqf6F2VidpFVTUnKsU1OQGoIsydDgzcArKUKWYM0rzAYnkrSUBMB6fh5QGpvA4onDkznH/7RG0jDHPOU1wGnahrLYNPGS14RydU4S5HQIq+eius5trvh7vqqmkltzuP8F);strokeColor=#606771;spacingTop=-3;spacingBottom=-3;spacingLeft=-3;spacingRight=-3;points=[];labelBackgroundColor=none;rounded=0;html=1;whiteSpace=wrap;" vertex="1" parent="1vmF5FxM2HMWmrMtrK7E-6">
          <mxGeometry width="16" height="16" as="geometry" />
        </mxCell>
        <mxCell id="1vmF5FxM2HMWmrMtrK7E-8" style="vsdxID=784;fillColor=#606771;gradientColor=none;shape=stencil(nZJRDoIwDEBPs99maweBb8R7GAFZRCADFW4v2BFBA0b/2tfXpdsqKGryQ50KlE1rq3N6N0mbC9oJRFPmqTXtEAmKBUVZZdOTra5lwnl9GM0xulS38YSO+xAh8MculD0T+cz2LBemnMnyP9HzgfRcPl4tz6CWuku9ACQx6pCRAqWd5IgXgnaoI0YE2rX1jvgSMFgfM9CLOZXcuNJUnOQQQal1/fNdPQ1yY5afPuKLPASv/85MUfC6zOvv+zEg3i2KHw==);strokeColor=#606771;spacingTop=-3;spacingBottom=-3;spacingLeft=-3;spacingRight=-3;points=[];labelBackgroundColor=none;rounded=0;html=1;whiteSpace=wrap;" vertex="1" parent="1vmF5FxM2HMWmrMtrK7E-6">
          <mxGeometry x="7" y="3" width="3" height="7" as="geometry" />
        </mxCell>
        <mxCell id="1vmF5FxM2HMWmrMtrK7E-9" style="vsdxID=785;fillColor=#606771;gradientColor=none;shape=stencil(vVHLDsIgEPwajiQI6RfU+h8bu22JCGRB2/69kG1iazx58DazM/vIjjBtmiCi0CplCjecbZ8nYc5Ca+snJJsLEqYTph0C4Ujh4XvmEaqzont41gkL96naodXKrGF6YSfQtUi0OXXDVlqPfJNP6usotUhYbJIUMmQb/GGrAxpRljVycDBuc1hKM2LclX8/7H9nFfB+82Cd45T2+mcspcSRmu4F);strokeColor=#606771;spacingTop=-3;spacingBottom=-3;spacingLeft=-3;spacingRight=-3;points=[];labelBackgroundColor=none;rounded=0;html=1;whiteSpace=wrap;" vertex="1" parent="1vmF5FxM2HMWmrMtrK7E-6">
          <mxGeometry x="7" y="2" as="geometry" />
        </mxCell>
        <mxCell id="1vmF5FxM2HMWmrMtrK7E-10" style="vsdxID=786;fillColor=#606771;gradientColor=none;shape=stencil(vVHLDsIgEPwajiQI6RfU+h8bu22JCGRB2/69kG1iazx58DazM/vIjjBtmiCi0CplCjecbZ8nYc5Ca+snJJsLEqYTph0C4Ujh4XvmEaqzont41gkL96naodXKrGF6YSfQtUi0OXXDVlqPfJNP6usotUhYbJIUMmQb/GGrAxpRljVycDBuc1hKM2LclX8/7H9nFfB+82Cd45T2+mcspcSRmu4F);strokeColor=#606771;spacingTop=-3;spacingBottom=-3;spacingLeft=-3;spacingRight=-3;points=[];labelBackgroundColor=none;rounded=0;html=1;whiteSpace=wrap;" vertex="1" parent="1vmF5FxM2HMWmrMtrK7E-6">
          <mxGeometry x="7" y="13" as="geometry" />
        </mxCell>
        <mxCell id="1vmF5FxM2HMWmrMtrK7E-11" style="vsdxID=787;fillColor=#606771;gradientColor=none;shape=stencil(vVHLDsIgEPwajiQI6RfU+h8bu22JCGRB2/69kG1iazx58DazM/vIjjBtmiCi0CplCjecbZ8nYc5Ca+snJJsLEqYTph0C4Ujh4XvmEaqzont41gkL96naodXKrGF6YSfQtUi0OXXDVlqPfJNP6usotUhYbJIUMmQb/GGrAxpRljVycDBuc1hKM2LclX8/7H9nFfB+82Cd45T2+mcspcSRmu4F);strokeColor=#606771;spacingTop=-3;spacingBottom=-3;spacingLeft=-3;spacingRight=-3;points=[];labelBackgroundColor=none;rounded=0;html=1;whiteSpace=wrap;" vertex="1" parent="1vmF5FxM2HMWmrMtrK7E-6">
          <mxGeometry x="2" y="7" as="geometry" />
        </mxCell>
        <mxCell id="1vmF5FxM2HMWmrMtrK7E-12" style="vsdxID=788;fillColor=#606771;gradientColor=none;shape=stencil(vVHLDsIgEPwajiQI6RfU+h8bu22JCGRB2/69kG1iazx58DazM/vIjjBtmiCi0CplCjecbZ8nYc5Ca+snJJsLEqYTph0C4Ujh4XvmEaqzont41gkL96naodXKrGF6YSfQtUi0OXXDVlqPfJNP6usotUhYbJIUMmQb/GGrAxpRljVycDBuc1hKM2LclX8/7H9nFfB+82Cd45T2+mcspcSRmu4F);strokeColor=#606771;spacingTop=-3;spacingBottom=-3;spacingLeft=-3;spacingRight=-3;points=[];labelBackgroundColor=none;rounded=0;html=1;whiteSpace=wrap;" vertex="1" parent="1vmF5FxM2HMWmrMtrK7E-6">
          <mxGeometry x="13" y="7" as="geometry" />
        </mxCell>
        <mxCell id="1vmF5FxM2HMWmrMtrK7E-13" value="&lt;div style=&quot;font-size: 1px&quot;&gt;&lt;font style=&quot;font-size:16.93px;font-family:Segoe UI;color:#7b818e;direction:ltr;letter-spacing:0px;line-height:120%;opacity:1&quot;&gt;16:27&lt;br/&gt;&lt;/font&gt;&lt;/div&gt;" style="text;vsdxID=782;fillColor=none;gradientColor=none;strokeColor=none;spacingTop=-3;spacingBottom=-3;spacingLeft=-3;spacingRight=-3;points=[];labelBackgroundColor=none;rounded=0;html=1;whiteSpace=wrap;verticalAlign=middle;align=center;;html=1;" vertex="1" parent="1vmF5FxM2HMWmrMtrK7E-6">
          <mxGeometry x="21.81" y="-0.28" width="44.83" height="20.33" as="geometry" />
        </mxCell>
      </root>
    </mxGraphModel>
  </diagram>
</mxfile>
